<?xml version="1.0" encoding="UTF-8"?>
<svg id="Camada_2" data-name="Camada 2" xmlns="http://www.w3.org/2000/svg" viewBox="0 0 35 28.44">
  <defs>
    <style>
      .cls-1 {
        fill: #fafafa;
      }
    </style>
  </defs>
  <g id="Camada_1-2" data-name="Camada 1">
    <g>
      <g>
        <path class="cls-1" d="M26.97,14.93c2.12,0,4.25,0,6.37,0,1,0,1.67,.63,1.66,1.53,0,.75-.56,1.37-1.3,1.45-.21,.02-.43,.02-.65,.02-4.02,0-8.03,0-12.05,0-1.93,0-3.4,1.07-3.86,2.76-.44,1.62,.23,3.31,1.65,4.19,1.41,.87,3.19,.72,4.44-.38,.4-.36,.81-.64,1.37-.58,.61,.07,1.06,.39,1.27,.97,.22,.62,.07,1.18-.41,1.64-1.42,1.35-3.12,2-5.07,1.91-3.22-.16-5.91-2.64-6.33-5.8-.44-3.28,1.49-6.38,4.63-7.35,.73-.23,1.53-.32,2.3-.34,1.99-.05,3.98-.02,5.98-.02Z"/>
        <path class="cls-1" d="M21.91,13.51c2.12,0,4.25,0,6.37,0,1,0,1.67-.63,1.66-1.53,0-.75-.56-1.37-1.3-1.45-.21-.02-.43-.02-.65-.02-4.02,0-8.03,0-12.05,0-1.93,0-3.4-1.07-3.86-2.76-.44-1.62,.23-3.31,1.65-4.19,1.41-.87,3.19-.72,4.44,.38,.4,.36,.81,.64,1.37,.58,.61-.07,1.06-.39,1.27-.97,.22-.62,.07-1.18-.41-1.64C18.98,.56,17.28-.09,15.33,0c-3.22,.16-5.91,2.64-6.33,5.8-.44,3.28,1.49,6.38,4.63,7.35,.73,.23,1.53,.32,2.3,.34,1.99,.05,3.98,.02,5.98,.02Z"/>
        <path class="cls-1" d="M29.82,8.78c-1.33,0-2.67,.09-3.99-.02-1.98-.17-3.51-2.02-3.49-4.05,.02-2.03,1.58-3.79,3.56-4.02,1.26-.14,2.35,.2,3.29,1.03,.55,.49,.62,1.22,.18,1.72-.44,.5-1.17,.52-1.73,.03-.53-.47-1.13-.61-1.8-.37-.65,.23-1.03,.71-1.14,1.39-.15,.87,.46,1.77,1.33,1.95,.23,.05,.46,.06,.69,.06,2.21,0,4.42,0,6.63,0,.5,0,.88,.19,1.12,.63,.21,.4,.19,.8-.06,1.18-.25,.37-.62,.53-1.06,.53-1.18,0-2.35,0-3.53,0,0-.02,0-.04,0-.06Z"/>
      </g>
      <path class="cls-1" d="M9.86,17.57c-.12-.82-.24-1.63-.37-2.5,.49-.28,1.02-.17,1.47,.2,.43,.35,.55,.84,.36,1.38-.09,.25-.17,.51-.3,.73-.25,.43-.52,.78-.24,1.37,.11,.23-.25,.82-.54,1.07-.67,.56-1.91,.52-2.63,0-.5-.36-.74-.8-.44-1.43,.07-.15,.01-.4-.06-.58-.16-.39-.41-.74-.55-1.13-.26-.77,.1-1.46,.84-1.69,.78-.24,1.42,.07,1.65,.88,.12,.42,.1,.88,.19,1.31,.04,.19,.19,.35,.28,.53,.11-.05,.22-.1,.33-.15Z"/>
      <path class="cls-1" d="M3.39,10.18c-.12-.82-.24-1.63-.37-2.5,.49-.28,1.02-.17,1.47,.2,.43,.35,.55,.84,.36,1.38-.09,.25-.17,.51-.3,.73-.25,.43-.52,.78-.24,1.37,.11,.23-.25,.82-.54,1.07-.67,.56-1.91,.52-2.63,0-.5-.36-.74-.8-.44-1.43,.07-.15,.01-.4-.06-.58-.16-.39-.41-.74-.55-1.13-.26-.77,.1-1.46,.84-1.69,.78-.24,1.42,.07,1.65,.88,.12,.42,.1,.88,.19,1.31,.04,.19,.19,.35,.28,.53,.11-.05,.22-.1,.33-.15Z"/>
      <path class="cls-1" d="M31.86,22.9c-.12-.82-.24-1.63-.37-2.5,.49-.28,1.02-.17,1.47,.2,.43,.35,.55,.84,.36,1.38-.09,.25-.17,.51-.3,.73-.25,.43-.52,.78-.24,1.37,.11,.23-.25,.82-.54,1.07-.67,.56-1.91,.52-2.63,0-.5-.36-.74-.8-.44-1.43,.07-.15,.01-.4-.06-.58-.16-.39-.41-.74-.55-1.13-.26-.77,.1-1.46,.84-1.69,.78-.24,1.42,.07,1.65,.88,.12,.42,.1,.88,.19,1.31,.04,.19,.19,.35,.28,.53,.11-.05,.22-.1,.33-.15Z"/>
    </g>
  </g>
</svg>